<svg id="图层_1" data-name="图层 1" xmlns="http://www.w3.org/2000/svg" viewBox="-10 -10 220 220"><defs><style>.cls-1{fill:#fff;}.cls-2{fill:#d81e06;}</style></defs><path class="cls-1" d="M154.56,45.4a73.61,73.61,0,0,1,16.73,25.22,77.66,77.66,0,0,1,0,57.46,73.61,73.61,0,0,1-16.73,25.22,74.78,74.78,0,0,1-25.23,16.82,76.7,76.7,0,0,1-57.54,0,77.08,77.08,0,0,1-42.12-42,76.37,76.37,0,0,1,0-57.46A74.57,74.57,0,0,1,46.48,45.4,73.39,73.39,0,0,1,71.79,28.67a77.73,77.73,0,0,1,57.54,0A73.64,73.64,0,0,1,154.56,45.4Z" transform="translate(-1.19 -1.09)"/><path class="cls-1" d="M142.59,141.94a11.59,11.59,0,0,0,3.7-9.6,15.34,15.34,0,0,0-4.7-9.6l-21-21,21-21a15.34,15.34,0,0,0,4.7-9.6,11.59,11.59,0,0,0-3.7-9.6,14.24,14.24,0,0,0-20.2,0l-21,20.8L81,61.94a15.81,15.81,0,0,0-9.6-4.5,11.86,11.86,0,0,0-9.6,3.5,14.49,14.49,0,0,0,0,20.4l20.4,20.4-20.4,20.4a14.24,14.24,0,0,0,0,20.2,11.56,11.56,0,0,0,9.6,3.7,15.29,15.29,0,0,0,9.6-4.7l20.4-20.4,21,21a14.24,14.24,0,0,0,20.2,0Z" transform="translate(-1.19 -1.09)"/><path class="cls-2" d="M169.94,29.83a95,95,0,0,1,21.63,32.58,100.17,100.17,0,0,1,0,74.23,95.17,95.17,0,0,1-21.63,32.59A96.72,96.72,0,0,1,137.32,191a99.21,99.21,0,0,1-74.41,0A99.56,99.56,0,0,1,8.44,136.64a98.63,98.63,0,0,1,0-74.23A96.38,96.38,0,0,1,30.18,29.83,95,95,0,0,1,62.91,8.21a100.77,100.77,0,0,1,74.41,0A95.26,95.26,0,0,1,169.94,29.83Zm-23.56,115a13.07,13.07,0,0,0,4.19-10.86,17.33,17.33,0,0,0-5.32-10.86L121.46,99.3l23.79-23.76a17.33,17.33,0,0,0,5.32-10.86,13.1,13.1,0,0,0-4.19-10.87,16.15,16.15,0,0,0-22.88,0L99.72,77.35,76.62,54.27a17.85,17.85,0,0,0-10.88-5.1,13.45,13.45,0,0,0-10.87,4,16.41,16.41,0,0,0,0,23.09L78,99.3,54.87,122.38a16.13,16.13,0,0,0,0,22.86,13.11,13.11,0,0,0,10.87,4.18,17.34,17.34,0,0,0,10.88-5.31L99.72,121l23.78,23.76a16.13,16.13,0,0,0,22.88,0Z" transform="translate(-1.19 -1.09)"/></svg>